<svg width="415" height="83" viewBox="0 0 415 83" fill="none" xmlns="http://www.w3.org/2000/svg">
<path d="M215.872 0.51265C216.407 0.532368 217.471 0.576733 217.999 0.59645L217.745 0.044364C218.451 0.0197174 219.165 0.00492933 219.878 0C219.83 27.6535 219.851 55.3071 219.871 82.9557C218.513 82.931 217.162 82.9113 215.81 82.8866C215.989 55.4303 215.872 27.969 215.872 0.51265Z" fill="black"/>
<path d="M375.647 0.182385C376.937 0.409134 378.261 0.527437 379.591 0.601377C379.53 28.0331 379.468 55.4648 379.619 82.8916C378.261 82.9113 376.902 82.931 375.551 82.9556C375.674 55.3613 375.482 27.7718 375.647 0.182385Z" fill="black"/>
<path d="M0.51372 0.497861C1.13795 0.492932 1.76904 0.492931 2.39326 0.492931C2.33839 27.9789 2.3521 55.4648 2.3864 82.9507C1.75531 82.9409 1.13109 82.9359 0.5 82.931C0.527439 55.45 0.50686 27.9739 0.51372 0.497861Z" fill="black"/>
<path d="M11.2079 0.532368C12.573 0.52251 13.938 0.51265 15.31 0.502792C15.2757 27.9789 15.2757 55.45 15.31 82.9211C13.9449 82.9162 12.5798 82.9162 11.2148 82.9162C11.4274 60.3103 11.2422 37.6995 11.3039 15.0985C11.2491 10.2431 11.4206 5.38776 11.2079 0.532368Z" fill="black"/>
<path d="M22.9516 0.492931C24.3716 0.507719 25.7846 0.512649 27.1977 0.50772C27.1634 27.9838 27.1703 55.4599 27.1909 82.9359C25.7778 82.9261 24.3647 82.931 22.9516 82.9458C23.0065 55.4599 22.9996 27.9789 22.9516 0.492931Z" fill="black"/>
<path d="M45.8079 0.522508C47.6463 0.522508 49.4847 0.522509 51.3162 0.488003C51.2819 27.9739 51.2888 55.4549 51.3162 82.9359C49.4847 82.9211 47.6532 82.9162 45.8285 82.931C45.8422 55.4599 45.8697 27.9887 45.8079 0.522508Z" fill="black"/>
<path d="M67.457 0.492931C70.7153 0.532365 73.9736 0.512648 77.232 0.50279C77.1977 27.9838 77.1908 55.4648 77.232 82.9458C73.9736 82.9063 70.7085 82.9162 67.4433 82.9409C67.5119 55.4599 67.4913 27.9739 67.457 0.492931Z" fill="black"/>
<path d="M82.6717 0.497861C83.6183 0.502791 84.5649 0.49786 85.5184 0.492931C85.4498 27.9739 85.4704 55.4599 85.5116 82.9409C84.5718 82.931 83.632 82.9359 82.6991 82.9409C82.7128 55.4599 82.7608 27.9789 82.6717 0.497861Z" fill="black"/>
<path d="M94.9847 0.492931C95.6364 0.512648 96.2812 0.527436 96.9329 0.547154C96.83 2.11468 97.1318 3.71178 96.5967 5.24973C97.2553 8.83335 96.7614 12.4958 96.8574 16.109C96.5693 16.9125 96.5144 17.7456 96.8711 18.5441C96.9397 19.5349 96.9534 20.5454 96.6036 21.5165C97.2072 23.6213 96.7751 25.7853 96.8986 27.9148C96.7751 30.2168 97.1935 32.5483 96.6242 34.8257C97.0289 36.1221 97.0426 37.4727 96.6173 38.7642C97.1935 41.0366 96.7819 43.3534 96.8986 45.6456C96.7819 47.6222 97.2004 49.6383 96.5967 51.5854C97.1592 53.1973 96.8986 54.8782 96.7408 56.5147C96.926 58.9695 97.1387 61.4638 96.631 63.9087C97.2621 70.2084 96.6859 76.5623 96.926 82.8817C96.2812 82.9014 95.6364 82.9211 94.9916 82.9409C95.0259 55.4599 95.0396 27.9739 94.9847 0.492931Z" fill="black"/>
<path d="M129.866 0.527437C130.861 0.512649 131.848 0.502791 132.843 0.488003C132.823 27.969 132.823 55.45 132.843 82.931C131.842 82.9211 130.847 82.9162 129.852 82.9162C129.989 55.4549 129.955 27.9887 129.866 0.527437Z" fill="black"/>
<path d="M138.139 0.522508C141.418 0.50772 144.703 0.537297 147.989 0.488003C147.934 27.9739 147.948 55.4599 147.982 82.9458C144.697 82.9014 141.418 82.9211 138.139 82.9211C138.221 55.4549 138.221 27.9887 138.139 0.522508Z" fill="black"/>
<path d="M153.113 0.507722C154.389 0.517581 155.672 0.512651 156.955 0.507722C156.934 27.9789 156.962 55.45 156.941 82.9261C155.658 82.9211 154.382 82.9261 153.106 82.9359C153.045 72.3231 153.333 61.7004 152.962 51.0974C153.065 50.2742 153.141 49.4461 153.141 48.6229C153.106 32.5829 153.154 16.5478 153.113 0.507722Z" fill="black"/>
<path d="M165.159 0.51758C166.222 0.51758 167.278 0.51758 168.349 0.51758C168.328 27.9937 168.335 55.4648 168.342 82.9408C167.272 82.9261 166.208 82.9162 165.145 82.9113C165.214 55.4451 165.179 27.9789 165.159 0.51758Z" fill="black"/>
<path d="M177.986 0.483076C178.309 0.502793 178.954 0.537297 179.276 0.557014C179.228 27.9986 179.221 55.4401 179.283 82.8817C178.954 82.9014 178.309 82.9359 177.98 82.9507C178.021 55.4648 178.007 27.9739 177.986 0.483076Z" fill="black"/>
<path d="M188.907 0.51265C189.867 0.51265 190.835 0.507721 191.802 0.502792C191.774 27.9789 191.774 55.4599 191.802 82.9409C190.835 82.931 189.867 82.931 188.9 82.9359C188.982 55.4599 188.969 27.9838 188.907 0.51265Z" fill="black"/>
<path d="M199.183 0.512649C201.22 0.50772 203.264 0.507719 205.308 0.527437C205.089 4.56456 205.59 8.62139 205.041 12.6437C205.452 14.438 205.233 16.2618 205.274 18.0709C205.302 39.686 205.219 61.3011 205.315 82.9162C203.264 82.9211 201.227 82.9261 199.183 82.9261C199.19 55.4549 199.19 27.9838 199.183 0.512649Z" fill="black"/>
<path d="M229.351 0.423922C229.578 0.433781 230.031 0.44857 230.264 0.453499C230.243 27.969 230.271 55.4796 230.25 82.9951C230.024 82.9951 229.571 83 229.345 83C229.331 55.4746 229.324 27.9493 229.351 0.423922Z" fill="black"/>
<path d="M237.645 0.50279C240.224 0.517578 242.81 0.522507 245.396 0.492931C245.382 27.9789 245.362 55.4599 245.403 82.9458C242.817 82.9063 240.238 82.9211 237.652 82.931C237.672 55.4549 237.7 27.9789 237.645 0.50279Z" fill="black"/>
<path d="M251.316 0.527437C252.681 0.522508 254.039 0.522509 255.411 0.51758C255.391 27.9887 255.377 55.4599 255.411 82.9359C254.046 82.9261 252.688 82.9211 251.33 82.9113C251.522 62.2771 251.357 41.643 251.412 21.0088C251.357 14.1817 251.529 7.35455 251.316 0.527437Z" fill="black"/>
<path d="M264.185 0.497861C264.932 0.512649 265.687 0.527437 266.441 0.542225C266.352 27.9986 266.352 55.4549 266.441 82.9063C265.666 82.9162 264.898 82.931 264.137 82.9408C263.931 65.9347 264.102 48.9186 264.047 31.9075C264.137 21.4376 263.869 10.9628 264.185 0.497861Z" fill="black"/>
<path d="M273.994 0.522509C276.018 0.51265 278.041 0.51265 280.065 0.522509C280.044 27.9887 280.051 55.4599 280.065 82.931C278.034 82.9211 276.011 82.9211 273.994 82.9113C274.104 55.45 274.097 27.9838 273.994 0.522509Z" fill="black"/>
<path d="M287.247 0.507722C288.303 0.517581 289.366 0.532368 290.43 0.547156C290.382 27.9936 290.327 55.4451 290.457 82.8916C289.387 82.9063 288.31 82.9162 287.247 82.931C287.281 55.4549 287.274 27.9838 287.247 0.507722Z" fill="black"/>
<path d="M302.064 0.488003C302.42 0.51265 303.141 0.566873 303.497 0.596449C303.12 1.79428 303.058 3.00689 303.333 4.21951C303.442 7.35949 303.415 10.5044 303.333 13.6394C303.333 14.0091 303.326 14.7387 303.326 15.1035C303.429 16.8287 303.353 18.554 303.442 20.2743L302.997 20.299C302.997 20.6637 302.99 21.3933 302.99 21.7531H303.429C303.381 22.9115 303.381 24.065 303.429 25.2234H302.99C302.99 25.5881 302.99 26.3177 302.99 26.6824H303.436C303.36 28.3288 303.36 29.9802 303.442 31.6266L302.99 31.6315C302.99 31.9963 302.99 32.7258 302.99 33.0856L303.436 33.1004C303.243 35.0623 303.751 37.0833 302.928 38.991L303.436 39.0107C303.113 40.5388 303.998 42.3429 302.832 43.6936C303.744 44.433 303.257 45.5273 303.484 46.4195H302.942C302.983 46.7399 303.058 47.3807 303.093 47.7011C303.216 48.1102 303.456 48.9334 303.58 49.3475L302.997 49.3721C302.99 49.7369 302.99 50.4714 302.99 50.8361H303.436C303.099 52.1966 304.053 53.9219 302.756 55.0359L303.292 55.45C303.497 58.9202 303.394 62.4053 303.319 65.8854C303.326 66.2551 303.326 66.9896 303.333 67.3593C303.49 72.5252 303.291 77.6961 303.436 82.8669C303.093 82.8866 302.4 82.9359 302.05 82.9606C302.146 55.4697 302.118 27.9789 302.064 0.488003Z" fill="black"/>
<path d="M313.08 0.488003C314.02 0.497862 314.987 0.507721 315.948 0.507721C315.92 27.9838 315.9 55.4599 315.954 82.9359C314.994 82.931 314.034 82.931 313.08 82.9409C313.087 55.4549 313.101 27.9739 313.08 0.488003Z" fill="black"/>
<path d="M323.363 0.50279C325.277 0.507719 327.197 0.50772 329.125 0.497861C329.098 10.953 329.132 21.413 329.104 31.873C329.125 32.5286 329.2 33.1892 329.324 33.8398C328.844 41.0514 329.248 48.2926 329.111 55.5141C329.118 64.658 329.104 73.8019 329.125 82.9458C327.204 82.9162 325.284 82.9113 323.37 82.9458C323.425 55.4648 323.438 27.9838 323.363 0.50279Z" fill="black"/>
<path d="M340.025 0.532367C341.369 0.522509 342.721 0.51758 344.072 0.51758C344.024 27.9887 343.99 55.4599 344.086 82.931C342.728 82.9211 341.363 82.9162 340.011 82.9113C340.073 55.4549 340.039 27.9936 340.025 0.532367Z" fill="black"/>
<path d="M361.749 0.512649C364.363 0.527437 366.983 0.522508 369.604 0.512649C369.473 27.9887 369.508 55.4697 369.59 82.9458C366.97 82.9162 364.356 82.9113 361.743 82.931C361.825 55.4549 361.811 27.9838 361.749 0.512649Z" fill="black"/>
<path d="M388.44 0.478145C389.119 0.502792 389.798 0.522509 390.491 0.547156C390.45 27.9887 390.416 55.4352 390.505 82.8817C389.812 82.9113 389.126 82.9409 388.447 82.9704C388.475 55.4746 388.475 27.9789 388.44 0.478145Z" fill="black"/>
<path d="M398.202 0.483076C400.088 0.52744 401.981 0.532367 403.881 0.492933C403.881 27.9739 403.854 55.4549 403.895 82.9359C401.995 82.9113 400.102 82.9113 398.208 82.9556C398.243 55.4648 398.263 27.9739 398.202 0.483076Z" fill="black"/>
<path d="M411.303 0.502792C412.36 0.51265 413.423 0.51758 414.493 0.522509C414.479 27.9887 414.473 55.4549 414.5 82.9211C413.43 82.9211 412.367 82.9211 411.31 82.9261C411.31 55.45 411.324 27.9789 411.303 0.502792Z" fill="black"/>
<path d="M35.9644 0.478145L37.6793 0.502792C37.6724 27.9838 37.6793 55.4648 37.6724 82.9458L35.9644 82.9557C35.9849 55.4648 35.9849 27.9739 35.9644 0.478145Z" fill="black"/>
<path d="M58.6355 0.492931C59.9594 0.507719 61.2833 0.522508 62.6141 0.532366C62.5798 27.9936 62.5798 55.45 62.6141 82.9113C61.2901 82.9162 59.9594 82.9261 58.6355 82.9458C58.6561 55.4599 58.6561 27.9739 58.6355 0.492931Z" fill="black"/>
<path d="M104.725 0.512649C106.742 0.522508 108.759 0.522509 110.769 0.532367C110.721 27.9936 110.7 55.4549 110.782 82.9162C108.766 82.9211 106.756 82.9211 104.739 82.931C104.753 55.4599 104.78 27.9887 104.725 0.512649Z" fill="black"/>
<path d="M117.553 0.50772C118.918 0.512649 120.29 0.507719 121.655 0.492931C121.614 27.9739 121.634 55.4549 121.648 82.9359C120.283 82.9211 118.918 82.9162 117.553 82.931C117.567 55.4549 117.574 27.9838 117.553 0.50772Z" fill="black"/>
<path d="M353.147 0.527436L354.396 0.473215C354.334 27.9739 354.327 55.4746 354.403 82.9754L353.141 82.9014C353.182 55.4401 353.168 27.9838 353.147 0.527436Z" fill="black"/>
</svg>
